<svg xmlns="http://www.w3.org/2000/svg" width="328" height="78" viewBox="0 0 328 78"><defs><mask id="w22ob" width="2.01" height="2.03" x="-1" y="-1.02"><path fill="#fff" d="M7 7h314v64H7z"/><path d="M25.443 8H298.18L320 38.627 298.18 70H25.444L8.396 37.133z"/></mask><filter id="w22oa" width="352" height="102" x="-12" y="-12" filterUnits="userSpaceOnUse"><feOffset in="SourceGraphic" result="FeOffset1023Out"/><feGaussianBlur in="FeOffset1023Out" result="FeGaussianBlur1024Out" stdDeviation="3.6 3.6"/></filter><linearGradient id="w22oe" x1="162.4" x2="166" y1="8" y2="70" gradientUnits="userSpaceOnUse"><stop offset="0" stop-color="#3c0118"/><stop offset=".01" stop-color="#3c0118"/><stop offset=".33" stop-color="#120227"/><stop offset=".73" stop-color="#120227"/><stop offset="1" stop-color="#153f8e"/></linearGradient><filter id="w22oc" width="200%" height="200%" x="-50%" y="-50%"><feGaussianBlur in="SourceGraphic" result="FeGaussianBlur1054Out" stdDeviation="4.1 4.1"/></filter><mask id="w22od"><path fill="#fff" d="M25.443 8H298.18L320 38.627 298.18 70H25.444L8.396 37.133z"/></mask><clipPath id="w22of"><path fill="#fff" d="M25.443 8H298.18L320 38.627 298.18 70H25.444L8.396 37.133z"/></clipPath></defs><g><g><g filter="url(#w22oa)"><path fill="none" stroke="#de0b5e" stroke-width="2" d="M25.443 8v0H298.18v0L320 38.627v0L298.18 70v0H25.444v0L8.396 37.133v0z" mask="url(&quot;#w22ob&quot;)"/><path fill="#de0b5e" d="M25.443 8H298.18L320 38.627 298.18 70H25.444L8.396 37.133z"/></g><path fill="#de0b5e" fill-opacity=".94" stroke="#de0b5e" stroke-opacity=".94" stroke-width="3.6" d="M-.2 78.2V-.2h328.4v78.4zm8.596-41.067L25.443 70H298.18L320 38.626 298.18 8H25.444z" filter="url(#w22oc)" mask="url(&quot;#w22od&quot;)"/><g filter="url(#w22oa)"><path fill="none" stroke="#de0b5e" stroke-width="2" d="M25.443 8v0H298.18v0L320 38.627v0L298.18 70v0H25.444v0L8.396 37.133v0z" mask="url(&quot;#w22ob&quot;)"/><path fill="#de0b5e" d="M25.443 8H298.18L320 38.627 298.18 70H25.444L8.396 37.133z"/></g><path fill="#fefaf3" d="M25.443 8H298.18L320 38.627 298.18 70H25.444L8.396 37.133z"/><path fill="url(#w22oe)" d="M25.443 8H298.18L320 38.627 298.18 70H25.444L8.396 37.133z"/><path fill="#de0b5e" fill-opacity=".94" stroke="#de0b5e" stroke-opacity=".94" stroke-width="3.6" d="M-.2 78.2V-.2h328.4v78.4zm8.596-41.067L25.443 70H298.18L320 38.626 298.18 8H25.444z" filter="url(#w22oc)" mask="url(&quot;#w22od&quot;)"/><path fill="none" stroke="#deeaff" stroke-linecap="round" stroke-linejoin="round" stroke-miterlimit="20" stroke-width="4" d="M25.443 8v0H298.18v0L320 38.627v0L298.18 70v0H25.444v0L8.396 37.133v0z" clip-path="url(&quot;#w22of&quot;)"/></g></g></svg>